; NON-PLATED HOLES START AT T1
; THROUGH (PLATED) HOLES START AT T100
M48
INCH
T1C0.086614
T100C0.015748
T101C0.040000
T102C0.035000
T103C0.059055
T104C0.043307
%
T1
X001734Y026174
X040734Y026174
X001734Y001174
X040734Y001174
T100
X009734Y014174
X039734Y004174
X021734Y023174
X009734Y010174
X028734Y006174
X028734Y007174
X009734Y018174
T101
X039734Y004174
X039734Y003174
X003734Y019363
X003734Y014363
X003734Y011363
X003734Y010363
X003734Y022363
X003734Y015363
X003734Y023363
X003734Y018363
T102
X009734Y014174
X009734Y022174
X005734Y022174
X005734Y014174
X005734Y010174
X009734Y010174
X005734Y018174
X009734Y018174
T103
X024734Y015174
X021734Y017174
X003734Y005174
X021734Y024174
X021734Y022174
X021734Y020174
X003734Y008174
X021734Y019174
X021734Y023174
X021734Y016174
X024734Y018174
X021734Y021174
X003734Y007174
X024734Y014174
X024734Y017174
X021734Y015174
X021734Y018174
X024734Y016174
X024734Y013174
X003734Y006174
T104
X032734Y009174
X032734Y018174
X031734Y006174
X031734Y009174
X031734Y018174
X032734Y006174
X032734Y007174
X031734Y015174
X031734Y007174
X032734Y015174
X032734Y020174
X032734Y010174
X031734Y016174
X032734Y008174
X032734Y019174
X032734Y016174
X031734Y020174
X031734Y010174
X031734Y008174
X031734Y019174
X031734Y005174
X032734Y017174
X032734Y005174
X031734Y017174
X019734Y007174
X031734Y004174
X019734Y006174
X032734Y004174
X031734Y023174
X031734Y013174
X019734Y005174
X031734Y011174
X031734Y021174
X032734Y023174
X032734Y013174
X032734Y011174
X032734Y021174
X031734Y014174
X031734Y022174
X031734Y012174
X019734Y008174
X032734Y022174
X032734Y012174
X032734Y014174
T00
M30
