G04 MADE WITH FRITZING*
G04 WWW.FRITZING.ORG*
G04 DOUBLE SIDED*
G04 HOLES PLATED*
G04 CONTOUR ON CENTER OF CONTOUR VECTOR*
%FSLAX26Y26*%
%MOIN*%
%ADD10C,0.083307*%
%ADD11C,0.099055*%
%ADD12C,0.080000*%
%ADD13C,0.075000*%
%ADD14C,0.039370*%
%ADD15R,0.083307X0.083307*%
%ADD16R,0.080000X0.080000*%
%ADD17C,0.024000*%
G04 COPPER1*
%FSLAX26Y26*%
%MOIN*%
D10*
X3273430Y2317467D03*
X3273430Y2217467D03*
X3273430Y2117467D03*
X3273430Y2017467D03*
X3273430Y1917467D03*
X3273430Y1817467D03*
X3273430Y1717470D03*
X3273430Y1617470D03*
X3273430Y1517470D03*
X3273430Y1417470D03*
X3273430Y1317470D03*
X3273430Y1217470D03*
X3273430Y1117470D03*
X3273430Y1017470D03*
X3273430Y917470D03*
X3273430Y817470D03*
X3273430Y717470D03*
X3273430Y617470D03*
X3273430Y517470D03*
X3273430Y417470D03*
X3173430Y2317467D03*
X3173430Y2217467D03*
X3173430Y2117467D03*
X3173430Y2017467D03*
X3173430Y1917467D03*
X3173430Y1817467D03*
X3173430Y1717470D03*
X3173430Y1617470D03*
X3173430Y1517470D03*
X3173430Y1417470D03*
X3173430Y1317470D03*
X3173430Y1217470D03*
X3173430Y1117470D03*
X3173430Y1017470D03*
X3173430Y917470D03*
X3173430Y817470D03*
X3173430Y717470D03*
X3173430Y617470D03*
X3173430Y517470D03*
X3173430Y417470D03*
X1973430Y817470D03*
X1973430Y717470D03*
X1973430Y617470D03*
X1973430Y517470D03*
D11*
X2173430Y2417467D03*
X2173430Y2317467D03*
X2173430Y2217467D03*
X2173430Y2117467D03*
X2173430Y2017467D03*
X2173430Y1917467D03*
X2173430Y1817467D03*
X2173430Y1717470D03*
X2173430Y1617470D03*
X2173430Y1517470D03*
X373425Y817470D03*
X373425Y717470D03*
X373425Y617470D03*
X373425Y517470D03*
D12*
X373425Y1536370D03*
X373425Y1436370D03*
X373425Y1936365D03*
X373425Y1836365D03*
X373425Y2336365D03*
X373425Y2236365D03*
D13*
X573425Y2217467D03*
X973425Y2217467D03*
X573425Y1817467D03*
X973425Y1817467D03*
X573425Y1417470D03*
X973425Y1417470D03*
D12*
X373425Y1136360D03*
X373425Y1036360D03*
D13*
X573425Y1017470D03*
X973425Y1017470D03*
D14*
X2873430Y717460D03*
X2873430Y717460D03*
X3973430Y417460D03*
X2173430Y2317468D03*
X973425Y1017460D03*
X973425Y1417460D03*
X973425Y1817468D03*
D12*
X3973430Y417470D03*
X3973430Y317470D03*
D14*
X2873430Y617460D03*
D11*
X2473430Y1817467D03*
X2473430Y1717470D03*
X2473430Y1617470D03*
X2473430Y1517470D03*
X2473430Y1417470D03*
X2473430Y1317470D03*
D15*
X3173434Y2317467D03*
D16*
X373425Y1536370D03*
X373425Y1936365D03*
X373425Y2336365D03*
X373425Y1136360D03*
X3973430Y417470D03*
D17*
X973425Y1799967D02*
X973425Y1434970D01*
D02*
X973425Y2199967D02*
X973425Y1834967D01*
D02*
X2143900Y2317621D02*
X1973370Y2318511D01*
D02*
X1472500Y2218337D02*
X990925Y2217498D01*
D02*
X1873190Y2218337D02*
X1472500Y2218337D01*
D02*
X1973370Y2318511D02*
X1873190Y2218337D01*
D02*
X2574410Y715730D02*
X2474240Y815900D01*
D02*
X2865550Y717420D02*
X2574410Y715730D01*
D02*
X2474240Y815900D02*
X1995080Y817400D01*
D02*
X1973430Y639120D02*
X1973430Y695810D01*
D02*
X973425Y1417470D02*
X973425Y1034970D01*
D02*
X2873450Y609590D02*
X2874930Y118390D01*
D02*
X2874930Y118390D02*
X3572440Y118390D01*
D02*
X3572440Y118390D02*
X3772790Y418920D01*
D02*
X3772790Y418920D02*
X3953430Y417610D01*
G04 End of Copper1*
M02*