G04 MADE WITH FRITZING*
G04 WWW.FRITZING.ORG*
G04 DOUBLE SIDED*
G04 HOLES PLATED*
G04 CONTOUR ON CENTER OF CONTOUR VECTOR*
%ASAXBY*%
%FSLAX23Y23*%
%MOIN*%
%OFA0B0*%
%SFA1.0B1.0*%
%ADD10C,0.083307*%
%ADD11C,0.099055*%
%ADD12C,0.080000*%
%ADD13C,0.075000*%
%ADD14C,0.039370*%
%ADD15R,0.083307X0.083307*%
%ADD16R,0.080000X0.080000*%
%ADD17C,0.024000*%
%LNCOPPER0*%
G90*
G70*
G54D10*
X3211Y2276D03*
X3211Y2176D03*
X3211Y2076D03*
X3211Y1976D03*
X3211Y1876D03*
X3211Y1776D03*
X3211Y1676D03*
X3211Y1576D03*
X3211Y1476D03*
X3211Y1376D03*
X3211Y1276D03*
X3211Y1176D03*
X3211Y1076D03*
X3211Y976D03*
X3211Y876D03*
X3211Y776D03*
X3211Y676D03*
X3211Y576D03*
X3211Y476D03*
X3211Y376D03*
X3111Y2276D03*
X3111Y2176D03*
X3111Y2076D03*
X3111Y1976D03*
X3111Y1876D03*
X3111Y1776D03*
X3111Y1676D03*
X3111Y1576D03*
X3111Y1476D03*
X3111Y1376D03*
X3111Y1276D03*
X3111Y1176D03*
X3111Y1076D03*
X3111Y976D03*
X3111Y876D03*
X3111Y776D03*
X3111Y676D03*
X3111Y576D03*
X3111Y476D03*
X3111Y376D03*
G54D11*
X311Y776D03*
X311Y676D03*
X311Y576D03*
X311Y476D03*
G54D10*
X1911Y776D03*
X1911Y676D03*
X1911Y576D03*
X1911Y476D03*
G54D12*
X2311Y2476D03*
X2411Y2476D03*
X311Y1095D03*
X311Y995D03*
X311Y1495D03*
X311Y1395D03*
X311Y1895D03*
X311Y1795D03*
X311Y2295D03*
X311Y2195D03*
G54D11*
X1411Y2276D03*
X1411Y2176D03*
X1411Y2076D03*
X1411Y1976D03*
X1411Y1876D03*
X1411Y1776D03*
X1411Y1676D03*
X1411Y1576D03*
X1411Y1476D03*
X1411Y1376D03*
G54D13*
X511Y976D03*
X911Y976D03*
X511Y1376D03*
X911Y1376D03*
X511Y1776D03*
X911Y1776D03*
X511Y2176D03*
X911Y2176D03*
G54D14*
X911Y976D03*
X911Y1376D03*
X911Y1776D03*
G54D11*
X2611Y1776D03*
X2611Y1676D03*
X2611Y1576D03*
X2611Y1476D03*
X2611Y1376D03*
X2611Y1276D03*
G54D14*
X2811Y2576D03*
X2211Y1976D03*
X1211Y2176D03*
X1211Y2176D03*
X2011Y2176D03*
X2911Y1976D03*
G54D15*
X3111Y2276D03*
G54D16*
X2311Y2476D03*
X311Y1095D03*
X311Y1495D03*
X311Y1895D03*
X311Y2295D03*
G54D17*
X913Y876D02*
X812Y776D01*
D02*
X912Y958D02*
X913Y876D01*
D02*
X812Y776D02*
X341Y776D01*
D02*
X1410Y2475D02*
X1411Y2305D01*
D02*
X312Y2475D02*
X1410Y2475D01*
D02*
X110Y2277D02*
X312Y2475D01*
D02*
X112Y2177D02*
X110Y2277D01*
D02*
X112Y2177D02*
X112Y1776D01*
D02*
X112Y1776D02*
X291Y1793D01*
D02*
X112Y1776D02*
X112Y1375D01*
D02*
X291Y2193D02*
X112Y2177D01*
D02*
X112Y1375D02*
X291Y1393D01*
D02*
X311Y1395D02*
X112Y1375D01*
D02*
X112Y1375D02*
X112Y974D01*
D02*
X112Y974D02*
X291Y993D01*
D02*
X311Y995D02*
X112Y974D01*
D02*
X112Y974D02*
X110Y376D01*
D02*
X110Y376D02*
X211Y275D01*
D02*
X211Y275D02*
X1511Y275D01*
D02*
X1511Y275D02*
X312Y277D01*
D02*
X312Y277D02*
X311Y446D01*
D02*
X1111Y2277D02*
X1111Y1975D01*
D02*
X1111Y1975D02*
X1410Y1676D01*
D02*
X1410Y1676D02*
X1382Y1676D01*
D02*
X513Y2277D02*
X1111Y2277D01*
D02*
X331Y2293D02*
X513Y2277D01*
D02*
X311Y2295D02*
X513Y2277D01*
D02*
X513Y2277D02*
X512Y2193D01*
D02*
X1010Y1877D02*
X513Y1876D01*
D02*
X513Y1876D02*
X331Y1893D01*
D02*
X1312Y1575D02*
X1010Y1877D01*
D02*
X311Y1895D02*
X513Y1876D01*
D02*
X1382Y1575D02*
X1312Y1575D01*
D02*
X513Y1876D02*
X512Y1793D01*
D02*
X1310Y1475D02*
X513Y1475D01*
D02*
X513Y1475D02*
X331Y1493D01*
D02*
X1312Y1474D02*
X1310Y1475D01*
D02*
X311Y1495D02*
X513Y1475D01*
D02*
X1382Y1475D02*
X1312Y1474D01*
D02*
X513Y1475D02*
X512Y1393D01*
D02*
X1410Y1377D02*
X1110Y1075D01*
D02*
X1110Y1075D02*
X513Y1075D01*
D02*
X1388Y1394D02*
X1410Y1377D01*
D02*
X513Y1075D02*
X331Y1093D01*
D02*
X2612Y275D02*
X312Y275D01*
D02*
X312Y275D02*
X311Y446D01*
D02*
X3090Y476D02*
X2811Y477D01*
D02*
X2811Y477D02*
X2612Y275D01*
D02*
X331Y1093D02*
X513Y1075D01*
D02*
X513Y1075D02*
X512Y993D01*
D02*
X2512Y874D02*
X2310Y675D01*
D02*
X2310Y675D02*
X1933Y676D01*
D02*
X3090Y876D02*
X2512Y874D01*
D02*
X2612Y774D02*
X2312Y477D01*
D02*
X2312Y477D02*
X1933Y476D01*
D02*
X3090Y776D02*
X2612Y774D01*
D02*
X2212Y2075D02*
X1441Y2076D01*
D02*
X2612Y2477D02*
X2212Y2075D01*
D02*
X3311Y2475D02*
X2612Y2477D01*
D02*
X3412Y2374D02*
X3311Y2475D01*
D02*
X3412Y776D02*
X3412Y2374D01*
D02*
X3311Y675D02*
X3412Y776D01*
D02*
X3233Y676D02*
X3311Y675D01*
D02*
X3111Y397D02*
X3111Y454D01*
D02*
X3090Y1676D02*
X2641Y1676D01*
D02*
X3090Y1576D02*
X2641Y1576D01*
D02*
X3090Y1476D02*
X2641Y1476D01*
D02*
X3090Y1376D02*
X2641Y1376D01*
D02*
X2110Y1775D02*
X2582Y1776D01*
D02*
X1312Y977D02*
X2110Y1775D01*
D02*
X913Y977D02*
X1312Y977D01*
D02*
X812Y776D02*
X913Y876D01*
D02*
X913Y876D02*
X913Y977D01*
D02*
X2203Y1976D02*
X1441Y1976D01*
D02*
X3311Y2576D02*
X2819Y2576D01*
D02*
X3512Y675D02*
X3512Y2374D01*
D02*
X3412Y574D02*
X3512Y675D01*
D02*
X3512Y2374D02*
X3311Y2576D01*
D02*
X3233Y576D02*
X3412Y574D01*
D02*
X2212Y2576D02*
X2410Y2575D01*
D02*
X1410Y2475D02*
X2112Y2475D01*
D02*
X2410Y2575D02*
X2411Y2496D01*
D02*
X2112Y2475D02*
X2212Y2576D01*
D02*
X1411Y2305D02*
X1410Y2475D01*
D02*
X2011Y2176D02*
X2297Y2462D01*
D02*
X1611Y2176D02*
X2011Y2176D01*
D02*
X1441Y2176D02*
X1611Y2176D01*
D02*
X2411Y376D02*
X1813Y376D01*
D02*
X2710Y675D02*
X2411Y376D01*
D02*
X1712Y675D02*
X1813Y776D01*
D02*
X1712Y477D02*
X1712Y675D01*
D02*
X3090Y676D02*
X2710Y675D01*
D02*
X1813Y376D02*
X1712Y477D01*
D02*
X1813Y776D02*
X1890Y776D01*
D02*
X2911Y1975D02*
X3090Y1976D01*
D02*
X2710Y1776D02*
X2911Y1975D01*
D02*
X2641Y1776D02*
X2710Y1776D01*
D02*
X1511Y776D02*
X2011Y1276D01*
D02*
X1511Y275D02*
X1511Y776D01*
D02*
X2011Y1276D02*
X2582Y1276D01*
D02*
X1382Y2176D02*
X1219Y2176D01*
G04 End of Copper0*
M02*