; NON-PLATED HOLES START AT T1
; THROUGH (PLATED) HOLES START AT T100
M48
INCH
T1C0.086614
T100C0.043307
T101C0.059055
T102C0.040000
T103C0.015748
T104C0.035000
%
T1
X034777Y025756
X001113Y001092
X034777Y001091
X001113Y025756
T100
X031113Y018756
X032113Y022756
X032113Y015756
X031113Y005756
X031113Y021756
X031113Y003756
X019113Y004756
X032113Y021756
X032113Y006756
X031113Y012756
X032113Y008756
X032113Y010756
X031113Y014756
X019113Y006756
X031113Y004756
X031113Y013756
X031113Y007756
X032113Y004756
X032113Y020756
X032113Y019756
X031113Y010756
X031113Y009756
X031113Y022756
X032113Y012756
X019113Y007756
X032113Y009756
X032113Y007756
X019113Y005756
X031113Y020756
X032113Y005756
X031113Y011756
X031113Y015756
X032113Y003756
X032113Y017756
X032113Y013756
X032113Y016756
X031113Y006756
X031113Y019756
X031113Y008756
X031113Y016756
X031113Y017756
X032113Y014756
X032113Y018756
X032113Y011756
T101
X026113Y013756
X003113Y004756
X026113Y016756
X014113Y014756
X014113Y020756
X014113Y018756
X014113Y016756
X026113Y014756
X003113Y007756
X014113Y021756
X014113Y015756
X003113Y006756
X026113Y012756
X026113Y015756
X003113Y005756
X014113Y013756
X014113Y022756
X014113Y019756
X026113Y017756
X014113Y017756
T102
X003113Y018945
X003113Y022945
X024113Y024756
X023113Y024756
X003113Y014945
X003113Y009945
X003113Y017945
X003113Y010945
X003113Y013945
X003113Y021945
T103
X009113Y013756
X009113Y009756
X012113Y021756
X009113Y017756
X022113Y019756
X028113Y025756
X020113Y021756
X029113Y019756
T104
X005113Y021756
X005113Y009756
X009113Y021756
X009113Y013756
X005113Y013756
X009113Y009756
X005113Y017756
X009113Y017756
T00
M30
